<?xml version="1.0" encoding="UTF-8"?>
<svg id="_Слой_2" data-name="Слой 2" xmlns="http://www.w3.org/2000/svg" viewBox="0 0 500 180.86">
  <defs>
    <style>
      .cls-1 {
        fill: #fff;
      }
    </style>
  </defs>
  <g id="_Слой_1-2" data-name="Слой 1">
    <path class="cls-1" d="M463.02,100.69h-6.24c-146.83,0-293.66,0-440.48,0-2.45,0-4.92,.04-7.34-.26C3.75,99.76,0,95.46,0,90.4c0-5.07,3.67-9.35,8.92-10.07,2.25-.31,4.56-.24,6.85-.24,146.99,0,293.98,0,440.98,0,2.08,0,4.17,0,7.62,0-2.05-2.14-3.2-3.38-4.39-4.57-18.49-18.51-37-37-55.48-55.52-1.27-1.27-2.6-2.52-3.62-3.98-2.92-4.19-2.39-9.42,1.17-12.99,3.48-3.5,8.88-4.04,13.01-1.19,1.33,.92,2.51,2.09,3.66,3.24,25.82,25.74,51.64,51.5,77.45,77.26,5.04,5.03,5.14,10.97,.13,15.97-26.03,26-52.07,51.98-78.14,77.94-5.61,5.58-11.87,6.11-16.31,1.51-4.46-4.62-3.77-10.54,1.97-16.29,18.6-18.63,37.21-37.25,55.86-55.83,1.26-1.25,2.9-2.13,4.36-3.18-.34-.59-.68-1.17-1.03-1.76Z"/>
  </g>
</svg>